<?xml version="1.0" standalone="no"?>
<!DOCTYPE svg PUBLIC "-//W3C//DTD SVG 20010904//EN"
 "http://www.w3.org/TR/2001/REC-SVG-20010904/DTD/svg10.dtd">
<svg version="1.0" xmlns="http://www.w3.org/2000/svg"
 width="1000.000000pt" height="1000.000000pt" viewBox="0 0 1000.000000 1000.000000"
 preserveAspectRatio="xMidYMid meet">
<metadata>
Created by potrace 1.14, written by Peter Selinger 2001-2017
</metadata>
<g transform="translate(0.000000,1000.000000) scale(0.100000,-0.100000)"
fill="#000000" stroke="none">
<path d="M4935 8848 c-38 -40 -103 -145 -121 -196 0 -1 -34 20 -75 47 -158
105 -279 111 -279 13 0 -23 19 -70 56 -139 31 -58 54 -106 52 -107 -1 -1 -64
-14 -138 -29 -580 -113 -1147 -434 -1546 -875 -269 -297 -499 -686 -601 -1016
-17 -56 -24 -64 -130 -152 -137 -115 -168 -153 -168 -206 0 -73 84 -120 238
-135 l69 -6 -6 -76 c-15 -205 -17 -278 -7 -416 52 -704 331 -1312 822 -1790
167 -162 312 -271 469 -350 112 -57 329 -141 459 -180 l116 -34 -160 -1 c-266
0 -409 -32 -548 -120 -194 -122 -315 -346 -372 -685 -30 -182 -36 -300 -42
-798 -4 -358 -9 -510 -17 -512 -60 -15 -72 -22 -83 -55 -7 -19 -12 -74 -12
-122 l-1 -88 60 0 60 0 0 74 0 73 77 7 c97 8 344 8 451 -1 l82 -6 0 -73 0 -74
60 0 60 0 0 723 c0 440 -4 756 -10 807 -12 98 -39 202 -50 195 -14 -8 -40
-127 -50 -227 -5 -54 -10 -351 -10 -662 l0 -565 -247 4 -248 5 -3 387 c-5 702
30 1006 143 1238 108 222 270 330 526 351 l77 7 304 -456 c259 -390 306 -455
323 -451 46 13 172 77 233 120 62 44 66 45 82 27 16 -17 14 -48 -32 -543 -26
-289 -46 -530 -44 -536 2 -6 52 -48 110 -93 l106 -82 0 -125 0 -124 30 0 30 0
0 128 1 127 95 70 c52 39 102 75 110 82 15 11 12 61 -32 547 -46 502 -48 537
-32 553 16 15 21 13 86 -30 66 -44 223 -127 239 -127 4 0 145 206 311 457
l304 456 86 -7 c371 -28 559 -248 627 -729 24 -174 35 -426 35 -846 l0 -404
-37 -32 -37 -32 26 -17 c14 -9 43 -20 64 -23 22 -3 42 -11 46 -17 4 -6 8 -44
8 -83 l0 -73 60 0 60 0 0 48 c-1 94 -18 173 -43 201 l-25 26 -5 495 c-6 514
-14 658 -47 848 -46 260 -129 440 -262 569 -141 137 -319 192 -628 193 l-125
1 110 34 c343 105 588 253 864 520 208 202 334 364 481 619 256 445 384 995
350 1506 -21 315 -93 630 -204 891 -5 12 5 26 36 50 79 63 263 254 305 317 65
97 68 163 9 206 -32 24 -95 26 -386 12 l-175 -9 -88 107 c-285 344 -650 620
-1057 799 -298 130 -647 217 -946 234 l-102 6 -6 51 c-3 28 -6 98 -6 156 0
160 -17 200 -86 200 -20 0 -42 -14 -79 -52z m64 -444 c1 -21 8 -22 124 -29
409 -23 742 -108 1092 -280 244 -120 439 -252 645 -438 91 -82 270 -272 278
-296 1 -4 -82 -11 -185 -14 -191 -6 -328 -23 -302 -37 8 -5 43 -16 78 -25 181
-47 536 -66 846 -45 108 7 198 10 202 7 9 -9 -36 -72 -101 -144 -73 -80 -223
-209 -306 -263 -170 -110 -427 -210 -645 -252 -105 -20 -151 -23 -365 -23
-207 1 -265 4 -370 22 -167 29 -327 72 -485 128 -212 76 -196 72 -207 49 -24
-44 -121 -125 -195 -162 -75 -38 -182 -76 -190 -68 -3 2 9 30 25 62 42 86 68
155 106 286 19 64 38 127 41 140 5 14 -42 -26 -121 -102 -141 -137 -211 -194
-331 -269 -308 -191 -756 -335 -1273 -411 -513 -74 -1240 -97 -1240 -39 0 5
53 53 119 106 l118 98 49 135 c54 150 186 424 261 540 175 274 380 504 618
695 131 106 340 237 510 320 265 130 528 212 813 253 73 11 135 21 137 24 2 2
-25 61 -60 131 -35 70 -61 127 -58 127 26 0 146 -112 219 -204 l31 -39 17 94
c9 52 31 125 49 164 l32 70 12 -145 c6 -80 12 -155 12 -166z m2466 -1834 c48
-140 90 -314 117 -485 30 -199 30 -531 -1 -732 -29 -190 -61 -315 -106 -403
-170 -338 -418 -608 -661 -722 -63 -29 -70 -31 -112 -19 -56 15 -236 105 -339
169 -89 56 -166 109 -444 308 -289 207 -432 289 -600 344 -258 85 -484 55
-798 -105 -76 -38 -277 -163 -489 -304 -198 -131 -409 -265 -469 -298 -122
-68 -242 -123 -270 -123 -53 0 -262 127 -378 229 -207 184 -406 489 -453 698
-30 131 -59 347 -67 493 -5 105 8 406 18 417 2 1 122 10 268 18 315 18 428 28
654 61 600 86 1057 236 1403 460 45 30 82 51 82 48 0 -2 -9 -22 -19 -42 -11
-21 -22 -54 -26 -75 -6 -32 -3 -40 23 -67 25 -24 39 -30 75 -30 117 0 331 89
431 180 l52 48 114 -40 c210 -72 547 -148 662 -148 20 0 40 -4 43 -10 3 -5 0
-10 -9 -10 -47 0 -200 -45 -225 -66 -55 -46 -42 -132 23 -159 32 -13 43 -13
118 5 352 83 620 83 950 -1 55 -14 84 -16 101 -10 70 27 90 109 39 160 -31 32
-106 53 -307 86 l-130 21 80 18 c140 31 323 97 459 166 153 77 133 86 191 -80z
m-4539 -2308 c23 -17 73 -51 113 -76 80 -49 80 -49 -35 -61 l-60 -7 -51 68
c-28 38 -75 107 -104 154 l-52 84 74 -65 c41 -36 92 -79 115 -97z m4287 79
c-21 -33 -62 -94 -91 -136 l-53 -76 -67 6 c-37 4 -68 9 -70 10 -2 2 28 23 65
48 37 25 109 82 158 126 50 44 91 80 93 80 1 1 -14 -26 -35 -58z m-1563 -1275
c-167 -161 -430 -346 -584 -411 l-66 -28 -53 24 c-104 48 -522 347 -576 413
-12 15 41 16 640 16 562 0 651 -2 639 -14z m-1385 -72 c198 -167 460 -361 553
-408 17 -9 32 -21 32 -26 0 -40 -250 -240 -299 -240 -6 0 -123 169 -261 375
l-250 375 68 0 68 0 89 -76z m1445 -299 c-138 -206 -253 -375 -257 -375 -11 0
-120 68 -168 103 -47 36 -135 119 -135 128 0 3 42 30 93 59 156 89 342 231
507 388 l75 71 68 1 67 0 -250 -375z"/>
<path d="M3625 6005 c-220 -24 -517 -55 -660 -70 -380 -38 -394 -40 -421 -66
-65 -61 -22 -168 68 -169 28 0 1169 118 1405 145 82 10 120 60 101 132 -9 33
-35 57 -73 66 -11 2 -200 -15 -420 -38z"/>
<path d="M3010 5432 c-55 -55 -48 -67 127 -244 l157 -158 -151 -153 c-83 -83
-154 -162 -158 -175 -15 -50 30 -102 87 -102 14 0 75 53 180 157 l158 157 158
-157 c105 -104 166 -157 180 -157 57 0 102 52 87 102 -4 13 -75 92 -158 175
l-151 153 157 158 c174 176 181 189 128 243 -54 53 -66 46 -254 -139 l-147
-147 -153 152 c-174 175 -195 186 -247 135z"/>
<path d="M6230 5447 c-31 -16 -53 -60 -44 -90 3 -12 74 -91 157 -175 l151
-152 -146 -148 c-80 -81 -151 -157 -157 -169 -15 -30 -4 -69 26 -93 51 -40 65
-31 235 137 l158 157 152 -151 c90 -89 164 -154 180 -158 48 -12 97 28 98 79
0 25 -25 55 -157 188 l-157 158 157 158 c174 176 181 189 128 243 -54 53 -66
46 -254 -139 l-147 -147 -153 152 c-87 87 -163 154 -177 158 -14 3 -36 -1 -50
-8z"/>
<path d="M6336 2458 c-31 -120 -36 -234 -36 -807 0 -533 -1 -576 -17 -594 -14
-15 -19 -42 -21 -128 l-4 -109 62 0 c61 0 61 0 59 27 -1 16 -1 49 -1 74 l2 47
68 6 c105 11 183 25 231 43 l44 16 -34 18 c-42 21 -135 39 -205 39 -29 0 -55
4 -58 9 -3 5 -6 235 -6 512 -1 512 -8 688 -35 814 -22 102 -30 107 -49 33z"/>
<path d="M5127 922 c-24 -26 -21 -49 7 -67 34 -23 66 -5 66 35 0 45 -44 64
-73 32z"/>
</g>
</svg>
